<svg width="1920" height="1080" viewBox="0 0 1920 1080" fill="none" xmlns="http://www.w3.org/2000/svg">
<path fill-rule="evenodd" clip-rule="evenodd" d="M0 0H1920V1080H0V0ZM82.2366 76.1125C81.0015 70.7296 84.3638 65.3645 89.7466 64.1293L167.72 46.2366C173.103 45.0013 178.468 48.3638 179.703 53.7467L197.596 131.72C198.831 137.103 195.469 142.468 190.086 143.703L112.113 161.596C106.729 162.831 101.365 159.469 100.129 154.086L82.2366 76.1125ZM842.9 519.066C837.911 516.697 831.946 518.821 829.577 523.81L805.592 574.319C803.222 579.308 805.346 585.273 810.335 587.642L860.844 611.628C865.833 613.997 871.798 611.873 874.167 606.884L898.153 556.375C900.522 551.386 898.398 545.421 893.409 543.052L842.9 519.066ZM1225.24 143.113C1224 137.73 1227.36 132.365 1232.75 131.129L1310.72 113.237C1316.1 112.001 1321.47 115.364 1322.7 120.747L1340.6 198.72C1341.83 204.103 1338.47 209.468 1333.09 210.703L1255.11 228.596C1249.73 229.831 1244.36 226.469 1243.13 221.086L1225.24 143.113ZM503.427 852.602C498.045 853.837 494.682 859.202 495.917 864.585L506.129 909.086C507.365 914.469 512.729 917.831 518.113 916.596L562.613 906.384C567.996 905.149 571.359 899.784 570.124 894.401L559.912 849.9C558.677 844.517 553.312 841.155 547.928 842.39L503.427 852.602ZM149.606 365.821C153.128 361.566 159.432 360.972 163.686 364.494L198.858 393.606C203.113 397.128 203.707 403.432 200.185 407.686L171.073 442.858C167.551 447.113 161.248 447.707 156.993 444.185L121.821 415.073C117.566 411.551 116.972 405.247 120.494 400.993L149.606 365.821ZM126.182 903.967C124.218 898.806 118.441 896.214 113.279 898.178L92.7871 905.977C87.6255 907.941 85.0337 913.718 86.998 918.88L94.7966 939.371C96.761 944.533 102.538 947.125 107.699 945.161L128.191 937.362C133.353 935.397 135.945 929.621 133.98 924.459L126.182 903.967ZM1068.84 283.557C1074 281.592 1079.78 284.184 1081.74 289.346L1089.54 309.838C1091.5 315 1088.91 320.776 1083.75 322.741L1063.26 330.539C1058.1 332.504 1052.32 329.912 1050.36 324.75L1042.56 304.258C1040.59 299.097 1043.18 293.32 1048.35 291.356L1068.84 283.557ZM1634.76 169.929C1636.94 164.854 1634.59 158.974 1629.51 156.797L1589.81 139.766C1584.74 137.589 1578.86 139.939 1576.68 145.014L1559.65 184.716C1557.47 189.792 1559.82 195.671 1564.9 197.849L1604.6 214.879C1609.68 217.056 1615.55 214.707 1617.73 209.631L1634.76 169.929ZM1770.82 329.748C1776.17 328.369 1781.62 331.585 1783 336.933L1796.09 387.667C1797.47 393.014 1794.26 398.468 1788.91 399.848L1738.17 412.94C1732.83 414.32 1727.37 411.104 1725.99 405.756L1712.9 355.022C1711.52 349.674 1714.74 344.22 1720.08 342.841L1770.82 329.748ZM1777.53 638.205C1778.18 632.721 1774.27 627.746 1768.78 627.094L1733.69 622.92C1728.21 622.268 1723.23 626.185 1722.58 631.669L1718.4 666.761C1717.75 672.245 1721.67 677.22 1727.15 677.872L1762.25 682.046C1767.73 682.699 1772.7 678.782 1773.36 673.297L1777.53 638.205ZM1345.84 464.557C1351 462.592 1356.78 465.184 1358.74 470.346L1366.54 490.838C1368.5 496 1365.91 501.776 1360.75 503.741L1340.26 511.539C1335.1 513.504 1329.32 510.912 1327.36 505.75L1319.56 485.258C1317.59 480.097 1320.18 474.32 1325.35 472.356L1345.84 464.557ZM954.887 870.079C952.923 864.917 947.146 862.325 941.984 864.289L935.785 866.648C930.624 868.613 928.032 874.39 929.996 879.551L932.355 885.75C934.32 890.912 940.097 893.504 945.258 891.539L951.457 889.18C956.619 887.216 959.211 881.439 957.246 876.277L954.887 870.079ZM824.832 757.178C830.166 758.607 833.332 764.09 831.903 769.425L830.186 775.832C828.757 781.166 823.273 784.332 817.939 782.903L811.532 781.186C806.198 779.757 803.032 774.273 804.461 768.939L806.178 762.532C807.607 757.197 813.091 754.032 818.425 755.461L824.832 757.178ZM963.772 176.76C969.224 177.64 974.357 173.933 975.237 168.48L976.293 161.933C977.173 156.48 973.466 151.347 968.013 150.468L961.466 149.411C956.013 148.532 950.88 152.239 950 157.691L948.944 164.239C948.064 169.691 951.771 174.824 957.224 175.704L963.772 176.76ZM639.885 445.662C639.006 451.114 633.873 454.821 628.42 453.942L621.872 452.885C616.42 452.006 612.713 446.873 613.593 441.42L614.649 434.872C615.529 429.42 620.662 425.713 626.114 426.593L632.662 427.649C638.114 428.529 641.821 433.662 640.941 439.114L639.885 445.662ZM287.42 275.942C292.873 276.821 298.006 273.114 298.885 267.662L299.941 261.114C300.821 255.662 297.114 250.529 291.662 249.649L285.114 248.593C279.662 247.713 274.529 251.42 273.649 256.872L272.593 263.42C271.713 268.873 275.42 274.006 280.872 274.885L287.42 275.942ZM438.885 168.662C438.006 174.114 432.873 177.821 427.42 176.942L420.872 175.885C415.42 175.006 411.713 169.873 412.593 164.42L413.649 157.872C414.529 152.42 419.662 148.713 425.114 149.593L431.662 150.649C437.114 151.529 440.821 156.662 439.941 162.114L438.885 168.662ZM1112.43 120.579C1116.34 124.484 1122.67 124.484 1126.57 120.579L1131.26 115.889C1135.17 111.984 1135.17 105.652 1131.26 101.747L1126.57 97.0573C1122.67 93.1521 1116.34 93.1521 1112.43 97.0573L1107.74 101.747C1103.84 105.652 1103.84 111.984 1107.74 115.889L1112.43 120.579ZM590.237 109.432C589.001 104.049 592.364 98.6835 597.747 97.4482L642.248 87.2366C647.631 86.0013 652.996 89.3636 654.231 94.7466L664.443 139.248C665.678 144.63 662.315 149.996 656.932 151.231L612.432 161.443C607.049 162.678 601.684 159.315 600.448 153.932L590.237 109.432ZM230.107 621.574C224.585 621.664 220.182 626.214 220.271 631.736L221.574 711.725C221.665 717.248 226.214 721.651 231.736 721.561L311.726 720.258C317.248 720.168 321.651 715.619 321.561 710.097L320.258 630.107C320.168 624.585 315.619 620.181 310.097 620.271L230.107 621.574ZM759.934 227.692C760.986 222.27 766.234 218.727 771.656 219.779L826.531 230.425C831.953 231.477 835.495 236.725 834.444 242.147L823.798 297.022C822.746 302.444 817.498 305.986 812.076 304.935L757.201 294.289C751.779 293.237 748.237 287.989 749.288 282.567L759.934 227.692ZM478.429 343.899C474.011 340.585 467.743 341.48 464.428 345.898L447.916 367.911C444.602 372.329 445.497 378.597 449.915 381.911L471.928 398.424C476.346 401.738 482.614 400.843 485.928 396.425L502.441 374.412C505.755 369.994 504.86 363.726 500.442 360.412L478.429 343.899ZM553.214 609.828C557.884 606.879 564.06 608.275 567.008 612.945L581.698 636.214C584.646 640.884 583.251 647.06 578.581 650.008L555.312 664.698C550.642 667.647 544.466 666.251 541.518 661.581L526.827 638.312C523.879 633.642 525.275 627.466 529.945 624.518L553.214 609.828ZM1297.02 840.039C1300.92 836.13 1300.92 829.799 1297.01 825.897L1230.04 759.064C1226.13 755.163 1219.8 755.169 1215.9 759.078L1149.06 826.045C1145.16 829.954 1145.17 836.286 1149.08 840.187L1216.05 907.021C1219.95 910.922 1226.29 910.916 1230.19 907.006L1297.02 840.039ZM1594.64 854.278C1599.4 857.083 1600.98 863.213 1598.18 867.971L1569.79 916.125C1566.98 920.883 1560.85 922.466 1556.09 919.661L1507.94 891.274C1503.18 888.469 1501.6 882.338 1504.4 877.581L1532.79 829.427C1535.6 824.669 1541.73 823.086 1546.48 825.891L1594.64 854.278ZM1579.28 550.117C1583.88 547.062 1585.14 540.856 1582.08 536.255L1566.86 513.331C1563.8 508.73 1557.6 507.477 1553 510.532L1530.07 525.754C1525.47 528.809 1524.22 535.015 1527.27 539.616L1542.5 562.54C1545.55 567.141 1551.76 568.394 1556.36 565.339L1579.28 550.117Z" fill="#1654B2"/>
</svg>
