<svg width="1920" height="520" viewBox="0 0 1920 520" fill="none" xmlns="http://www.w3.org/2000/svg">
<path fill-rule="evenodd" clip-rule="evenodd" d="M1920 0H0V315.158L65.5703 297.588C70.905 296.159 76.3884 299.325 77.8179 304.659L108.876 420.57C110.305 425.905 107.14 431.388 101.805 432.818L0 460.096V520H1920V477.13L1879.89 487.876C1874.56 489.306 1869.08 486.14 1867.65 480.805L1836.59 364.894C1835.16 359.559 1838.32 354.076 1843.66 352.646L1920 332.191V0ZM202 30.6603C204.761 25.8773 210.877 24.2385 215.66 27L258.961 52C263.744 54.7614 265.383 60.8773 262.622 65.6603L237.622 108.962C234.86 113.744 228.744 115.383 223.961 112.622L180.66 87.6218C175.877 84.8604 174.239 78.7444 177 73.9615L202 30.6603ZM572.66 407C567.877 409.761 566.239 415.877 569 420.66L594 463.962C596.761 468.744 602.877 470.383 607.66 467.622L650.961 442.622C655.744 439.86 657.383 433.744 654.622 428.962L629.622 385.66C626.86 380.877 620.744 379.239 615.961 382L572.66 407ZM1452.47 152.604C1453.9 147.269 1459.39 144.104 1464.72 145.533L1513.02 158.474C1518.35 159.903 1521.52 165.387 1520.09 170.721L1507.15 219.018C1505.72 224.352 1500.24 227.518 1494.9 226.089L1446.6 213.148C1441.27 211.718 1438.1 206.235 1439.53 200.9L1452.47 152.604ZM916.894 16.5881C911.559 15.1588 906.076 18.3246 904.646 23.6593L873.588 139.57C872.159 144.905 875.324 150.388 880.659 151.818L996.57 182.876C1001.91 184.305 1007.39 181.14 1008.82 175.805L1039.88 59.8939C1041.31 54.5593 1038.14 49.0759 1032.8 47.6465L916.894 16.5881ZM1715.24 64.9975C1709.76 65.6429 1705.83 70.6127 1706.48 76.0977L1717 165.481C1717.64 170.966 1722.61 174.889 1728.1 174.244L1817.48 163.724C1822.97 163.079 1826.89 158.109 1826.24 152.624L1815.72 63.241C1815.08 57.756 1810.11 53.8329 1804.62 54.4783L1715.24 64.9975ZM527.588 110.012C526.159 104.677 529.325 99.194 534.659 97.7646L553.978 92.5882C559.312 91.1588 564.796 94.3246 566.225 99.6593L571.402 118.978C572.831 124.312 569.665 129.796 564.331 131.225L545.012 136.402C539.677 137.831 534.194 134.665 532.765 129.331L527.588 110.012ZM316.355 423.071C312.45 419.166 306.118 419.166 302.213 423.071L288.071 437.213C284.166 441.118 284.166 447.45 288.071 451.355L302.213 465.497C306.118 469.403 312.45 469.403 316.355 465.497L330.497 451.355C334.403 447.45 334.403 441.118 330.497 437.213L316.355 423.071ZM1717.16 289.952C1719.43 284.916 1725.35 282.673 1730.38 284.942L1748.62 293.157C1753.65 295.426 1755.9 301.347 1753.63 306.382L1745.41 324.617C1743.14 329.652 1737.22 331.895 1732.19 329.627L1713.95 321.411C1708.92 319.143 1706.67 313.222 1708.94 308.186L1717.16 289.952ZM1302.36 40.071C1298.45 36.1658 1292.12 36.1658 1288.21 40.071L1274.07 54.2132C1270.17 58.1185 1270.17 64.4501 1274.07 68.3553L1288.21 82.4975C1292.12 86.4027 1298.45 86.4027 1302.36 82.4975L1316.5 68.3553C1320.4 64.4501 1320.4 58.1185 1316.5 54.2132L1302.36 40.071ZM920.956 402.506C923.104 397.417 928.969 395.033 934.057 397.18L952.484 404.956C957.572 407.104 959.957 412.969 957.809 418.057L950.033 436.484C947.886 441.572 942.021 443.957 936.932 441.809L918.506 434.033C913.417 431.886 911.033 426.021 913.18 420.932L920.956 402.506ZM1141.66 344.882C1136.32 346.311 1133.16 351.795 1134.59 357.129L1157.88 444.063C1159.31 449.397 1164.79 452.563 1170.13 451.134L1257.06 427.84C1262.4 426.411 1265.56 420.927 1264.13 415.593L1240.84 328.659C1239.41 323.325 1233.93 320.159 1228.59 321.588L1141.66 344.882Z" fill="#1654B2"/>
</svg>
